<svg width="22" height="31" viewBox="0 0 22 31" fill="none" xmlns="http://www.w3.org/2000/svg">
<path d="M22 10.9226C22 16.3347 17.1426 23.8371 12.5525 29.9668C11.7722 31.0087 10.2198 31.0137 9.44282 29.9693C5.52894 24.7087 0 16.1985 0 10.9226C0 4.89317 4.92487 0.00537109 11 0.00537109C17.0751 0.00537109 22 4.89317 22 10.9226ZM4.91968 10.9226C4.91968 14.2554 7.64193 16.9571 11 16.9571C14.3581 16.9571 17.0803 14.2554 17.0803 10.9226C17.0803 7.58978 14.3581 4.88802 11 4.88802C7.64193 4.88802 4.91968 7.58978 4.91968 10.9226Z" fill="#FF151E"/>
</svg>
