<svg width="53" height="53" viewBox="0 0 53 53" fill="none" xmlns="http://www.w3.org/2000/svg">
<rect width="53" height="53" rx="26.5" fill="white"/>
<path d="M20.8478 39.1923V42.3654C20.8478 42.7157 21.1142 43 21.4425 43H23.8214C23.9791 43 24.1304 42.9331 24.2419 42.8141C24.3534 42.6951 24.4161 42.5337 24.4161 42.3654V39.1923H25.6055V42.3654C25.6055 42.7157 25.872 43 26.2003 43H28.5792C28.7369 43 28.8882 42.9331 28.9997 42.8141C29.1112 42.6951 29.1739 42.5337 29.1739 42.3654V39.1923H29.3737C34.1125 39.1923 37.5 36.5701 37.5 32.0338C37.5 28.2211 35.1045 26.137 32.2997 25.84V25.6166C34.6073 25.0023 36.3034 23.1442 36.3034 20.0574C36.3034 16.1685 33.5677 13.8077 29.3927 13.8077H29.1739V10.6346C29.1739 10.4663 29.1112 10.3049 28.9997 10.1859C28.8882 10.0669 28.7369 10 28.5792 10H26.2003C26.0425 10 25.8913 10.0669 25.7797 10.1859C25.6682 10.3049 25.6055 10.4663 25.6055 10.6346V13.8077H24.2424V10.6346C24.2424 10.4663 24.1798 10.3049 24.0682 10.1859C23.9567 10.0669 23.8054 10 23.6477 10H21.4425C21.2847 10 21.1335 10.0669 21.0219 10.1859C20.9104 10.3049 20.8478 10.4663 20.8478 10.6346V13.8077L16.0947 13.8356C15.937 13.8356 15.7857 13.9025 15.6742 14.0215C15.5627 14.1405 15.5 14.3019 15.5 14.4702V16.9808C15.5 17.3285 15.7617 17.6154 16.09 17.6154L17.886 17.6027C18.3572 17.606 18.8079 17.8081 19.1399 18.1648C19.472 18.5215 19.6583 19.0038 19.6583 19.5065V33.4808C19.6583 33.9857 19.4703 34.4699 19.1357 34.827C18.8011 35.184 18.3473 35.3846 17.8741 35.3846L16.0947 35.4125C15.937 35.4125 15.7857 35.4794 15.6742 35.5984C15.5627 35.7174 15.5 35.8788 15.5 36.0472V38.5856C15.5 38.9359 15.7664 39.2202 16.0947 39.2202L20.8478 39.1923ZM24.2424 17.5824H28.3317C30.487 17.5824 31.7526 18.8465 31.7526 20.9128C31.7526 23.1238 30.3847 24.3702 27.2874 24.3702H24.2424V17.5824ZM24.2424 27.8657H28.6196C31.3244 27.8657 32.7969 29.338 32.7969 31.7343C32.7969 34.1535 31.3077 35.4151 27.6633 35.4151H24.2424V27.8657Z" fill="#3238E0"/>
</svg>
