<svg width="53" height="53" viewBox="0 0 53 53" fill="none" xmlns="http://www.w3.org/2000/svg">
<rect width="53" height="53" rx="26.5" fill="white"/>
<path d="M27.5896 10C28.1362 10.0001 28.5797 10.394 28.5798 10.8799V13.584C30.9112 13.7747 33.2207 14.3925 35.032 15.3799C35.4071 15.5844 35.5478 16.0431 35.3835 16.4375L34.5349 18.4756C34.3313 18.9644 33.7459 19.1623 33.2702 18.9297C31.726 18.174 30.1149 17.7053 28.5798 17.5137V24.833C32.5724 25.791 36.7409 27.1524 36.7409 31.9805C36.7409 35.553 34.1056 38.6714 28.5798 39.3438V42.1201C28.5797 42.606 28.1362 42.9999 27.5896 43H25.6091C25.0625 42.9998 24.6199 42.606 24.6198 42.1201V39.4092C21.4791 39.1549 18.4979 38.2018 16.5915 36.8584C16.2682 36.6305 16.1752 36.2025 16.3396 35.8428L17.2614 33.8252C17.498 33.3077 18.1572 33.1468 18.6404 33.4473C20.2843 34.4702 22.4239 35.2233 24.6198 35.4844V28.2275C20.6723 27.2669 16.616 25.8682 16.6159 21.0557C16.6159 17.4777 19.1836 14.3733 24.6198 13.6699V10.8799C24.6199 10.394 25.0625 10.0002 25.6091 10H27.5896ZM28.5798 35.3945C30.9638 34.9503 32.0056 33.7714 32.0056 32.3047C32.0055 30.6433 30.5715 29.8234 28.5798 29.2168V35.3945ZM24.6198 17.6416C22.3531 18.1326 21.3886 19.3679 21.3884 20.8389C21.3884 22.4268 22.7302 23.2372 24.6198 23.834V17.6416Z" fill="#3238E0"/>
</svg>
