<svg width="102" height="102" viewBox="0 0 102 102" fill="none" xmlns="http://www.w3.org/2000/svg">
<rect width="102" height="102" rx="51" fill="#3238E0"/>
<path d="M40.4011 83.7927L34.4693 73.7956L23.2056 71.3275L24.3051 59.7322L16.673 50.9999L24.3051 42.2675L23.2056 30.6723L34.4693 28.2042L40.4011 18.207L50.9999 22.707L61.5987 18.207L67.5305 28.2042L78.7942 30.6723L77.6947 42.2675L85.3268 50.9999L77.6947 59.7322L78.7942 71.3275L67.5305 73.7956L61.5987 83.7927L50.9999 79.2928L40.4011 83.7927ZM47.5096 61.6494L65.1397 44.0193L61.6369 40.4144L47.5096 54.5417L40.3628 47.4971L36.8601 50.9999L47.5096 61.6494Z" fill="white"/>
</svg>
